<svg xmlns="http://www.w3.org/2000/svg" xmlns:xlink="http://www.w3.org/1999/xlink" version="1.1" x="0px" y="0px" viewBox="0 0 96 120" style="enable-background:new 0 0 96 96;" xml:space="preserve">
  <path d="M24,86.05V93c0,1.657-1.343,3-3,3h-9c-1.657,0-3-1.343-3-3V82.262C7.116,81.133,6,79.734,6,78V66  c0-3.713,1.687-7.033,4.336-9.234C7.832,56.045,6,53.737,6,51c0-3.314,2.686-6,6-6h4l2-6c3-9,12-9,12-9h6h24h6c0,0,9,0,12,9l2,6h4  c3.314,0,6,2.686,6,6c0,2.737-1.832,5.045-4.336,5.766C88.313,58.967,90,62.287,90,66v12c0,1.734-1.117,3.132-3,4.262V93  c0,1.657-1.343,3-3,3h-9c-1.657,0-3-1.343-3-3v-6.95C63.358,87,53.67,87,48,87S32.643,86.999,24,86.05L24,86.05z M93,5.999  c-0.799,0-1.555-0.313-2.121-0.878C90.314,4.556,90.001,3.799,90.001,3c0-0.826-0.674-1.5-1.5-1.5s-1.5,0.674-1.5,1.5  c0,1.595,0.629,3.114,1.757,4.242C89.886,8.37,91.405,8.999,93,8.999c0.826,0,1.5-0.674,1.5-1.5S93.826,5.999,93,5.999L93,5.999z   M93,23.999c0.828,0,1.5,0.672,1.5,1.5s-0.672,1.5-1.5,1.5C79.746,26.999,69.001,16.254,69.001,3c0-0.828,0.672-1.5,1.5-1.5  s1.5,0.672,1.5,1.5C72.001,14.597,81.403,23.999,93,23.999L93,23.999z M93,14.999c0.828,0,1.5,0.672,1.5,1.5  c0,0.828-0.672,1.5-1.5,1.5c-8.284,0-14.999-6.715-14.999-14.999c0-0.828,0.672-1.5,1.5-1.5s1.5,0.672,1.5,1.5  C81.001,9.626,86.373,14.999,93,14.999L93,14.999z M79.838,54l-4.684-14.051c-0.936-2.809-2.711-4.894-5.44-6.068  C68.713,33.451,67.112,33,66,33H30c-1.112,0-2.713,0.451-3.714,0.881c-2.728,1.173-4.503,3.258-5.44,6.068L16.162,54H18h3h54h3  H79.838L79.838,54z M61.5,72h-27c-0.828,0-1.5,0.672-1.5,1.5s0.672,1.5,1.5,1.5h27c0.828,0,1.5-0.672,1.5-1.5S62.328,72,61.5,72  L61.5,72z M78,63c-3.314,0-6,2.686-6,6s2.686,6,6,6s6-2.686,6-6S81.314,63,78,63L78,63z M18,63c-3.314,0-6,2.686-6,6s2.686,6,6,6  s6-2.686,6-6S21.314,63,18,63L18,63z M31.5,66c-0.828,0-1.5,0.672-1.5,1.5s0.672,1.5,1.5,1.5h33c0.828,0,1.5-0.672,1.5-1.5  S65.328,66,64.5,66H31.5z" />
</svg>