<?xml version="1.0" standalone="no"?>
<!DOCTYPE svg PUBLIC "-//W3C//DTD SVG 20010904//EN"
 "http://www.w3.org/TR/2001/REC-SVG-20010904/DTD/svg10.dtd">
<svg version="1.0" xmlns="http://www.w3.org/2000/svg"
 width="132.000000pt" height="132.000000pt" viewBox="0 0 132.000000 132.000000"
 preserveAspectRatio="xMidYMid meet">
<metadata>
Created by potrace 1.10, written by Peter Selinger 2001-2011
</metadata>
<g transform="translate(0.000000,132.000000) scale(0.050000,-0.050000)"
fill="#000000" stroke="none">
<path d="M0 1320 l0 -1320 1320 0 1320 0 0 1320 0 1320 -1320 0 -1320 0 0
-1320z m1256 935 l-6 -144 -264 -211 c-145 -115 -264 -217 -265 -225 -1 -8
121 -15 269 -15 l270 0 0 -140 0 -140 -521 0 -521 0 6 145 6 144 160 127 c88
70 208 167 267 216 l107 88 -272 0 -272 0 0 150 0 150 521 0 521 0 -6 -145z
m1144 -365 l0 -510 -510 0 -510 0 0 510 0 510 510 0 510 0 0 -510z m-1660
-904 c115 -145 217 -264 225 -265 8 0 15 121 15 269 l0 270 140 0 140 0 0
-510 0 -510 -139 0 -139 0 -198 235 c-286 340 -264 338 -264 27 l0 -262 -150
0 -150 0 0 511 0 511 155 -6 155 -6 210 -264z m1660 134 l0 -140 -170 0 -170
0 0 -370 0 -370 -160 0 -160 0 0 370 0 370 -180 0 -180 0 0 140 0 140 510 0
510 0 0 -140z"/>
<path d="M1680 1880 l0 -220 220 0 220 0 0 220 0 220 -220 0 -220 0 0 -220z"/>
</g>
</svg>
